%TF.GenerationSoftware,KiCad,Pcbnew,9.0.3*%
%TF.CreationDate,2025-07-09T17:54:38-05:00*%
%TF.ProjectId,focMotorController,666f634d-6f74-46f7-9243-6f6e74726f6c,rev?*%
%TF.SameCoordinates,Original*%
%TF.FileFunction,Soldermask,Top*%
%TF.FilePolarity,Negative*%
%FSLAX46Y46*%
G04 Gerber Fmt 4.6, Leading zero omitted, Abs format (unit mm)*
G04 Created by KiCad (PCBNEW 9.0.3) date 2025-07-09 17:54:38*
%MOMM*%
%LPD*%
G01*
G04 APERTURE LIST*
G04 Aperture macros list*
%AMRoundRect*
0 Rectangle with rounded corners*
0 $1 Rounding radius*
0 $2 $3 $4 $5 $6 $7 $8 $9 X,Y pos of 4 corners*
0 Add a 4 corners polygon primitive as box body*
4,1,4,$2,$3,$4,$5,$6,$7,$8,$9,$2,$3,0*
0 Add four circle primitives for the rounded corners*
1,1,$1+$1,$2,$3*
1,1,$1+$1,$4,$5*
1,1,$1+$1,$6,$7*
1,1,$1+$1,$8,$9*
0 Add four rect primitives between the rounded corners*
20,1,$1+$1,$2,$3,$4,$5,0*
20,1,$1+$1,$4,$5,$6,$7,0*
20,1,$1+$1,$6,$7,$8,$9,0*
20,1,$1+$1,$8,$9,$2,$3,0*%
G04 Aperture macros list end*
%ADD10RoundRect,0.250000X0.550000X-0.550000X0.550000X0.550000X-0.550000X0.550000X-0.550000X-0.550000X0*%
%ADD11C,1.600000*%
%ADD12C,1.770000*%
%ADD13RoundRect,0.250000X0.375000X0.625000X-0.375000X0.625000X-0.375000X-0.625000X0.375000X-0.625000X0*%
%ADD14RoundRect,0.250000X-0.650000X1.000000X-0.650000X-1.000000X0.650000X-1.000000X0.650000X1.000000X0*%
%ADD15RoundRect,0.250000X0.625000X-0.375000X0.625000X0.375000X-0.625000X0.375000X-0.625000X-0.375000X0*%
%ADD16RoundRect,0.250000X-1.425000X0.362500X-1.425000X-0.362500X1.425000X-0.362500X1.425000X0.362500X0*%
%ADD17RoundRect,0.250000X-0.625000X0.312500X-0.625000X-0.312500X0.625000X-0.312500X0.625000X0.312500X0*%
%ADD18RoundRect,0.225000X0.375000X-0.225000X0.375000X0.225000X-0.375000X0.225000X-0.375000X-0.225000X0*%
%ADD19RoundRect,0.102000X0.955000X-0.955000X0.955000X0.955000X-0.955000X0.955000X-0.955000X-0.955000X0*%
%ADD20C,2.114000*%
%ADD21RoundRect,0.102000X-0.955000X0.955000X-0.955000X-0.955000X0.955000X-0.955000X0.955000X0.955000X0*%
%ADD22RoundRect,0.250000X-0.375000X-0.625000X0.375000X-0.625000X0.375000X0.625000X-0.375000X0.625000X0*%
%ADD23RoundRect,0.102000X0.990600X0.254000X-0.990600X0.254000X-0.990600X-0.254000X0.990600X-0.254000X0*%
%ADD24RoundRect,0.250000X-0.350000X-0.625000X0.350000X-0.625000X0.350000X0.625000X-0.350000X0.625000X0*%
%ADD25O,1.200000X1.750000*%
%ADD26C,2.300000*%
%ADD27RoundRect,0.087500X-0.087500X0.537500X-0.087500X-0.537500X0.087500X-0.537500X0.087500X0.537500X0*%
%ADD28RoundRect,0.150000X0.150000X-0.825000X0.150000X0.825000X-0.150000X0.825000X-0.150000X-0.825000X0*%
%ADD29C,2.000000*%
%ADD30R,2.000000X2.000000*%
%ADD31R,1.600000X1.600000*%
%ADD32O,1.600000X1.600000*%
G04 APERTURE END LIST*
D10*
%TO.C,C7*%
X142500000Y-43955113D03*
D11*
X142500000Y-41955113D03*
%TD*%
D10*
%TO.C,C1*%
X140000000Y-86000000D03*
D11*
X140000000Y-82500000D03*
%TD*%
D12*
%TO.C,F1*%
X97500000Y-55500000D03*
X94500000Y-60500000D03*
%TD*%
D13*
%TO.C,R7*%
X111400000Y-39500000D03*
X108600000Y-39500000D03*
%TD*%
D14*
%TO.C,D1*%
X101000000Y-51000000D03*
X101000000Y-55000000D03*
%TD*%
D15*
%TO.C,D3*%
X92500000Y-41885022D03*
X92500000Y-39085022D03*
%TD*%
%TO.C,D4*%
X77500000Y-41885022D03*
X77500000Y-39085022D03*
%TD*%
D16*
%TO.C,R14*%
X110646100Y-69672500D03*
X110646100Y-75597500D03*
%TD*%
D10*
%TO.C,C6*%
X129500000Y-43955113D03*
D11*
X129500000Y-41955113D03*
%TD*%
D17*
%TO.C,R12*%
X134500000Y-47037500D03*
X134500000Y-49962500D03*
%TD*%
D18*
%TO.C,D8*%
X129500000Y-50150000D03*
X129500000Y-46850000D03*
%TD*%
D17*
%TO.C,R19*%
X105704100Y-51672500D03*
X105704100Y-54597500D03*
%TD*%
D15*
%TO.C,R6*%
X85000000Y-41885022D03*
X85000000Y-39085022D03*
%TD*%
D10*
%TO.C,C8*%
X116500000Y-43955113D03*
D11*
X116500000Y-41955113D03*
%TD*%
D17*
%TO.C,R9*%
X121500000Y-47037500D03*
X121500000Y-49962500D03*
%TD*%
D18*
%TO.C,D7*%
X116500000Y-50150000D03*
X116500000Y-46850000D03*
%TD*%
D11*
%TO.C,C2*%
X133500000Y-82000000D03*
X133500000Y-87000000D03*
%TD*%
D19*
%TO.C,U5*%
X133262100Y-63587500D03*
D20*
X133262100Y-61047500D03*
X133262100Y-58507500D03*
%TD*%
D16*
%TO.C,R15*%
X123372000Y-69672500D03*
X123372000Y-75597500D03*
%TD*%
D17*
%TO.C,R10*%
X119000000Y-51672500D03*
X119000000Y-54597500D03*
%TD*%
D18*
%TO.C,D9*%
X142500000Y-50150000D03*
X142500000Y-46850000D03*
%TD*%
D16*
%TO.C,R16*%
X136204100Y-69672500D03*
X136204100Y-75597500D03*
%TD*%
D21*
%TO.C,U7*%
X125000000Y-49920000D03*
D20*
X125000000Y-52460000D03*
X125000000Y-55000000D03*
%TD*%
D13*
%TO.C,R8*%
X124400000Y-39500000D03*
X121600000Y-39500000D03*
%TD*%
D15*
%TO.C,R4*%
X75020882Y-41900000D03*
X75020882Y-39100000D03*
%TD*%
D17*
%TO.C,R22*%
X108500000Y-47037500D03*
X108500000Y-49962500D03*
%TD*%
D22*
%TO.C,R2*%
X95600000Y-71500000D03*
X98400000Y-71500000D03*
%TD*%
D15*
%TO.C,D5*%
X82500000Y-41885022D03*
X82500000Y-39085022D03*
%TD*%
D23*
%TO.C,U10*%
X125463800Y-45405000D03*
X125463800Y-44135000D03*
X125463800Y-42865000D03*
X125463800Y-41595000D03*
X120536200Y-41595000D03*
X120536200Y-42865000D03*
X120536200Y-44135000D03*
X120536200Y-45405000D03*
%TD*%
D15*
%TO.C,R3*%
X90000000Y-41885022D03*
X90000000Y-39085022D03*
%TD*%
%TO.C,R1*%
X106000000Y-78900000D03*
X106000000Y-76100000D03*
%TD*%
D13*
%TO.C,R11*%
X137900000Y-39500000D03*
X135100000Y-39500000D03*
%TD*%
D19*
%TO.C,U4*%
X120430000Y-63587500D03*
D20*
X120430000Y-61047500D03*
X120430000Y-58507500D03*
%TD*%
D11*
%TO.C,C4*%
X128204100Y-60500000D03*
X128204100Y-65500000D03*
%TD*%
D22*
%TO.C,R13*%
X95100000Y-68500000D03*
X97900000Y-68500000D03*
%TD*%
D15*
%TO.C,D6*%
X87500000Y-41885022D03*
X87500000Y-39085022D03*
%TD*%
D24*
%TO.C,J2*%
X96000000Y-82500000D03*
D25*
X98000000Y-82500000D03*
X100000000Y-82500000D03*
X102000000Y-82500000D03*
X104000000Y-82500000D03*
X106000000Y-82500000D03*
%TD*%
D26*
%TO.C,P1*%
X118372000Y-83635000D03*
X123372000Y-83635000D03*
X128372000Y-83635000D03*
%TD*%
D23*
%TO.C,U9*%
X112463800Y-45405000D03*
X112463800Y-44135000D03*
X112463800Y-42865000D03*
X112463800Y-41595000D03*
X107536200Y-41595000D03*
X107536200Y-42865000D03*
X107536200Y-44135000D03*
X107536200Y-45405000D03*
%TD*%
D27*
%TO.C,U2*%
X99000000Y-76100000D03*
X98500000Y-76100000D03*
X98000000Y-76100000D03*
X97500000Y-76100000D03*
X97500000Y-78900000D03*
X98000000Y-78900000D03*
X98500000Y-78900000D03*
X99000000Y-78900000D03*
%TD*%
D21*
%TO.C,U6*%
X112000000Y-49920000D03*
D20*
X112000000Y-52460000D03*
X112000000Y-55000000D03*
%TD*%
D28*
%TO.C,U13*%
X126299100Y-74975000D03*
X127569100Y-74975000D03*
X128839100Y-74975000D03*
X130109100Y-74975000D03*
X130109100Y-70025000D03*
X128839100Y-70025000D03*
X127569100Y-70025000D03*
X126299100Y-70025000D03*
%TD*%
D15*
%TO.C,R5*%
X80000000Y-41885022D03*
X80000000Y-39085022D03*
%TD*%
D28*
%TO.C,U12*%
X113799100Y-74975000D03*
X115069100Y-74975000D03*
X116339100Y-74975000D03*
X117609100Y-74975000D03*
X117609100Y-70025000D03*
X116339100Y-70025000D03*
X115069100Y-70025000D03*
X113799100Y-70025000D03*
%TD*%
D29*
%TO.C,P2*%
X102000000Y-43500000D03*
X97000000Y-43500000D03*
%TD*%
D11*
%TO.C,C5*%
X141000000Y-60500000D03*
X141000000Y-65500000D03*
%TD*%
D30*
%TO.C,D2*%
X100550000Y-59960000D03*
D29*
X100550000Y-65040000D03*
%TD*%
D28*
%TO.C,U14*%
X139299100Y-74975000D03*
X140569100Y-74975000D03*
X141839100Y-74975000D03*
X143109100Y-74975000D03*
X143109100Y-70025000D03*
X141839100Y-70025000D03*
X140569100Y-70025000D03*
X139299100Y-70025000D03*
%TD*%
D21*
%TO.C,U8*%
X138000000Y-50047500D03*
D20*
X138000000Y-52587500D03*
X138000000Y-55127500D03*
%TD*%
D23*
%TO.C,U11*%
X138463800Y-45405000D03*
X138463800Y-44135000D03*
X138463800Y-42865000D03*
X138463800Y-41595000D03*
X133536200Y-41595000D03*
X133536200Y-42865000D03*
X133536200Y-44135000D03*
X133536200Y-45405000D03*
%TD*%
D17*
%TO.C,R20*%
X132000000Y-51672500D03*
X132000000Y-54597500D03*
%TD*%
D31*
%TO.C,A1*%
X75500000Y-46980000D03*
D32*
X75500000Y-49520000D03*
X75500000Y-52060000D03*
X75500000Y-54600000D03*
X75500000Y-57140000D03*
X75500000Y-59680000D03*
X75500000Y-62220000D03*
X75500000Y-64760000D03*
X75500000Y-67300000D03*
X75500000Y-69840000D03*
X75500000Y-72380000D03*
X75500000Y-74920000D03*
X75500000Y-77460000D03*
X75500000Y-80000000D03*
X75500000Y-82540000D03*
X90740000Y-82540000D03*
X90740000Y-80000000D03*
X90740000Y-77460000D03*
X90740000Y-74920000D03*
X90740000Y-72380000D03*
X90740000Y-69840000D03*
X90740000Y-67300000D03*
X90740000Y-64760000D03*
X90740000Y-62220000D03*
X90740000Y-59680000D03*
X90740000Y-57140000D03*
X90740000Y-54600000D03*
X90740000Y-52060000D03*
X90740000Y-49520000D03*
X90740000Y-46980000D03*
%TD*%
D11*
%TO.C,C3*%
X115204100Y-60500000D03*
X115204100Y-65500000D03*
%TD*%
D27*
%TO.C,U1*%
X103250000Y-76100000D03*
X102750000Y-76100000D03*
X102250000Y-76100000D03*
X101750000Y-76100000D03*
X101750000Y-78900000D03*
X102250000Y-78900000D03*
X102750000Y-78900000D03*
X103250000Y-78900000D03*
%TD*%
D19*
%TO.C,U3*%
X107704100Y-63587500D03*
D20*
X107704100Y-61047500D03*
X107704100Y-58507500D03*
%TD*%
M02*
