%TF.GenerationSoftware,KiCad,Pcbnew,9.0.3*%
%TF.CreationDate,2025-07-09T22:45:58-05:00*%
%TF.ProjectId,focMotorController,666f634d-6f74-46f7-9243-6f6e74726f6c,rev?*%
%TF.SameCoordinates,Original*%
%TF.FileFunction,Copper,L4,Bot*%
%TF.FilePolarity,Positive*%
%FSLAX46Y46*%
G04 Gerber Fmt 4.6, Leading zero omitted, Abs format (unit mm)*
G04 Created by KiCad (PCBNEW 9.0.3) date 2025-07-09 22:45:58*
%MOMM*%
%LPD*%
G01*
G04 APERTURE LIST*
G04 Aperture macros list*
%AMRoundRect*
0 Rectangle with rounded corners*
0 $1 Rounding radius*
0 $2 $3 $4 $5 $6 $7 $8 $9 X,Y pos of 4 corners*
0 Add a 4 corners polygon primitive as box body*
4,1,4,$2,$3,$4,$5,$6,$7,$8,$9,$2,$3,0*
0 Add four circle primitives for the rounded corners*
1,1,$1+$1,$2,$3*
1,1,$1+$1,$4,$5*
1,1,$1+$1,$6,$7*
1,1,$1+$1,$8,$9*
0 Add four rect primitives between the rounded corners*
20,1,$1+$1,$2,$3,$4,$5,0*
20,1,$1+$1,$4,$5,$6,$7,0*
20,1,$1+$1,$6,$7,$8,$9,0*
20,1,$1+$1,$8,$9,$2,$3,0*%
G04 Aperture macros list end*
%TA.AperFunction,ComponentPad*%
%ADD10RoundRect,0.250000X0.550000X-0.550000X0.550000X0.550000X-0.550000X0.550000X-0.550000X-0.550000X0*%
%TD*%
%TA.AperFunction,ComponentPad*%
%ADD11C,1.600000*%
%TD*%
%TA.AperFunction,ComponentPad*%
%ADD12C,1.770000*%
%TD*%
%TA.AperFunction,ComponentPad*%
%ADD13R,1.910000X1.910000*%
%TD*%
%TA.AperFunction,ComponentPad*%
%ADD14C,1.910000*%
%TD*%
%TA.AperFunction,ComponentPad*%
%ADD15RoundRect,0.250000X-0.350000X-0.625000X0.350000X-0.625000X0.350000X0.625000X-0.350000X0.625000X0*%
%TD*%
%TA.AperFunction,ComponentPad*%
%ADD16O,1.200000X1.750000*%
%TD*%
%TA.AperFunction,ComponentPad*%
%ADD17C,2.300000*%
%TD*%
%TA.AperFunction,ComponentPad*%
%ADD18C,2.000000*%
%TD*%
%TA.AperFunction,ComponentPad*%
%ADD19R,2.000000X2.000000*%
%TD*%
%TA.AperFunction,ComponentPad*%
%ADD20R,1.600000X1.600000*%
%TD*%
%TA.AperFunction,ComponentPad*%
%ADD21O,1.600000X1.600000*%
%TD*%
%TA.AperFunction,ViaPad*%
%ADD22C,0.600000*%
%TD*%
%TA.AperFunction,Conductor*%
%ADD23C,0.200000*%
%TD*%
G04 APERTURE END LIST*
D10*
%TO.P,C7,1*%
%TO.N,PVIN*%
X142500000Y-43955113D03*
D11*
%TO.P,C7,2*%
%TO.N,GND*%
X142500000Y-41955113D03*
%TD*%
D10*
%TO.P,C1,1*%
%TO.N,Net-(C1-Pad1)*%
X140000000Y-86000000D03*
D11*
%TO.P,C1,2*%
%TO.N,PVIN*%
X140000000Y-82500000D03*
%TD*%
D12*
%TO.P,F1,1*%
%TO.N,+12V*%
X97500000Y-55500000D03*
%TO.P,F1,2*%
%TO.N,Net-(D2-A)*%
X94500000Y-60500000D03*
%TD*%
D10*
%TO.P,C6,1*%
%TO.N,PVIN*%
X129500000Y-43955113D03*
D11*
%TO.P,C6,2*%
%TO.N,GND*%
X129500000Y-41955113D03*
%TD*%
D10*
%TO.P,C8,1*%
%TO.N,PVIN*%
X116500000Y-43955113D03*
D11*
%TO.P,C8,2*%
%TO.N,GND*%
X116500000Y-41955113D03*
%TD*%
%TO.P,C2,1*%
%TO.N,GND*%
X133500000Y-82000000D03*
%TO.P,C2,2*%
%TO.N,Net-(C1-Pad1)*%
X133500000Y-87000000D03*
%TD*%
D13*
%TO.P,U5,1*%
%TO.N,CLowGate*%
X133262100Y-63587500D03*
D14*
%TO.P,U5,2*%
%TO.N,PhaseCSense*%
X133262100Y-61047500D03*
%TO.P,U5,3*%
%TO.N,GND*%
X133262100Y-58507500D03*
%TD*%
D13*
%TO.P,U7,1*%
%TO.N,BHighGate*%
X125000000Y-49920000D03*
D14*
%TO.P,U7,2*%
%TO.N,PVIN*%
X125000000Y-52460000D03*
%TO.P,U7,3*%
%TO.N,PhaseBSense*%
X125000000Y-55000000D03*
%TD*%
D13*
%TO.P,U4,1*%
%TO.N,BLowGate*%
X120430000Y-63587500D03*
D14*
%TO.P,U4,2*%
%TO.N,PhaseBSense*%
X120430000Y-61047500D03*
%TO.P,U4,3*%
%TO.N,GND*%
X120430000Y-58507500D03*
%TD*%
D11*
%TO.P,C4,1*%
%TO.N,Net-(D8-K)*%
X128204100Y-60500000D03*
%TO.P,C4,2*%
%TO.N,PhaseBSense*%
X128204100Y-65500000D03*
%TD*%
D15*
%TO.P,J2,1,Ground*%
%TO.N,GND*%
X96000000Y-82500000D03*
D16*
%TO.P,J2,2,Encoder_C_/_Index*%
%TO.N,EncoderC*%
X98000000Y-82500000D03*
%TO.P,J2,3,Encoder_B*%
%TO.N,EncoderB*%
X100000000Y-82500000D03*
%TO.P,J2,4,Encoder_A*%
%TO.N,EncoderA*%
X102000000Y-82500000D03*
%TO.P,J2,5,Motor_Temperature*%
%TO.N,Net-(J2-Motor_Temperature)*%
X104000000Y-82500000D03*
%TO.P,J2,6,+5V*%
%TO.N,5VDD*%
X106000000Y-82500000D03*
%TD*%
D17*
%TO.P,P1,1,1*%
%TO.N,PhaseAOut*%
X118372000Y-83635000D03*
%TO.P,P1,2,2*%
%TO.N,PhaseBOut*%
X123372000Y-83635000D03*
%TO.P,P1,3,3*%
%TO.N,PhaseCOut*%
X128372000Y-83635000D03*
%TD*%
D13*
%TO.P,U6,1*%
%TO.N,AHighGate*%
X112000000Y-49920000D03*
D14*
%TO.P,U6,2*%
%TO.N,PVIN*%
X112000000Y-52460000D03*
%TO.P,U6,3*%
%TO.N,PhaseASense*%
X112000000Y-55000000D03*
%TD*%
D18*
%TO.P,P2,1,1*%
%TO.N,+12V*%
X102000000Y-43500000D03*
%TO.P,P2,2,2*%
%TO.N,GND*%
X97000000Y-43500000D03*
%TD*%
D11*
%TO.P,C5,1*%
%TO.N,Net-(D9-K)*%
X141000000Y-60500000D03*
%TO.P,C5,2*%
%TO.N,PhaseCSense*%
X141000000Y-65500000D03*
%TD*%
D19*
%TO.P,D2,1,K*%
%TO.N,PVIN*%
X100550000Y-59960000D03*
D18*
%TO.P,D2,2,A*%
%TO.N,Net-(D2-A)*%
X100550000Y-65040000D03*
%TD*%
D13*
%TO.P,U8,1*%
%TO.N,CHighGate*%
X138000000Y-50047500D03*
D14*
%TO.P,U8,2*%
%TO.N,PVIN*%
X138000000Y-52587500D03*
%TO.P,U8,3*%
%TO.N,PhaseCSense*%
X138000000Y-55127500D03*
%TD*%
D20*
%TO.P,A1,1,D1/TX*%
%TO.N,unconnected-(A1-D1{slash}TX-Pad1)*%
X75500000Y-46980000D03*
D21*
%TO.P,A1,2,D0/RX*%
%TO.N,unconnected-(A1-D0{slash}RX-Pad2)*%
X75500000Y-49520000D03*
%TO.P,A1,3,~{RESET}*%
%TO.N,unconnected-(A1-~{RESET}-Pad3)*%
X75500000Y-52060000D03*
%TO.P,A1,4,GND*%
%TO.N,GND*%
X75500000Y-54600000D03*
%TO.P,A1,5,D2*%
%TO.N,EncLogicA*%
X75500000Y-57140000D03*
%TO.P,A1,6,D3*%
%TO.N,EncLogicB*%
X75500000Y-59680000D03*
%TO.P,A1,7,D4*%
%TO.N,EncLogicC*%
X75500000Y-62220000D03*
%TO.P,A1,8,D5*%
%TO.N,Status1*%
X75500000Y-64760000D03*
%TO.P,A1,9,D6*%
%TO.N,Status2*%
X75500000Y-67300000D03*
%TO.P,A1,10,D7*%
%TO.N,Status3*%
X75500000Y-69840000D03*
%TO.P,A1,11,D8*%
%TO.N,PhaseA*%
X75500000Y-72380000D03*
%TO.P,A1,12,D9*%
%TO.N,PhaseB*%
X75500000Y-74920000D03*
%TO.P,A1,13,D10/CS*%
%TO.N,PhaseC*%
X75500000Y-77460000D03*
%TO.P,A1,14,D11/COPI*%
%TO.N,Enable*%
X75500000Y-80000000D03*
%TO.P,A1,15,D12/CIPO*%
%TO.N,unconnected-(A1-D12{slash}CIPO-Pad15)*%
X75500000Y-82540000D03*
%TO.P,A1,16,D13/SCK*%
%TO.N,unconnected-(A1-D13{slash}SCK-Pad16)*%
X90740000Y-82540000D03*
%TO.P,A1,17,3V3*%
%TO.N,3.3VDD*%
X90740000Y-80000000D03*
%TO.P,A1,18,REF*%
%TO.N,unconnected-(A1-REF-Pad18)*%
X90740000Y-77460000D03*
%TO.P,A1,19,A0*%
%TO.N,Net-(A1-A0)*%
X90740000Y-74920000D03*
%TO.P,A1,20,A1*%
%TO.N,CurrentA*%
X90740000Y-72380000D03*
%TO.P,A1,21,A2*%
%TO.N,CurrentB*%
X90740000Y-69840000D03*
%TO.P,A1,22,A3*%
%TO.N,CurrentC*%
X90740000Y-67300000D03*
%TO.P,A1,23,SDA/A4*%
%TO.N,unconnected-(A1-SDA{slash}A4-Pad23)*%
X90740000Y-64760000D03*
%TO.P,A1,24,SCL/A5*%
%TO.N,unconnected-(A1-SCL{slash}A5-Pad24)*%
X90740000Y-62220000D03*
%TO.P,A1,25,A6*%
%TO.N,unconnected-(A1-A6-Pad25)*%
X90740000Y-59680000D03*
%TO.P,A1,26,A7*%
%TO.N,unconnected-(A1-A7-Pad26)*%
X90740000Y-57140000D03*
%TO.P,A1,27,VUSB/5V*%
%TO.N,5VDD*%
X90740000Y-54600000D03*
%TO.P,A1,28,REC*%
%TO.N,unconnected-(A1-REC-Pad28)*%
X90740000Y-52060000D03*
%TO.P,A1,29,GND*%
%TO.N,GND*%
X90740000Y-49520000D03*
%TO.P,A1,30,VIN*%
%TO.N,PVIN*%
X90740000Y-46980000D03*
%TD*%
D11*
%TO.P,C3,1*%
%TO.N,Net-(D7-K)*%
X115204100Y-60500000D03*
%TO.P,C3,2*%
%TO.N,PhaseASense*%
X115204100Y-65500000D03*
%TD*%
D13*
%TO.P,U3,1*%
%TO.N,ALowGate*%
X107704100Y-63587500D03*
D14*
%TO.P,U3,2*%
%TO.N,PhaseASense*%
X107704100Y-61047500D03*
%TO.P,U3,3*%
%TO.N,GND*%
X107704100Y-58507500D03*
%TD*%
D22*
%TO.N,GND*%
X140704100Y-67500000D03*
X101500000Y-48000000D03*
X92500000Y-67500000D03*
X118704100Y-68500000D03*
X131204100Y-68500000D03*
%TO.N,EncLogicC*%
X96500000Y-75000000D03*
%TO.N,3.3VDD*%
X142704100Y-77000000D03*
X129704100Y-77000000D03*
X100000000Y-75500000D03*
X104466450Y-75533550D03*
X117204100Y-77000000D03*
%TO.N,Net-(A1-A0)*%
X101000000Y-71500000D03*
%TO.N,PhaseA*%
X107000000Y-39500000D03*
%TO.N,EncLogicA*%
X101625000Y-73375000D03*
%TO.N,CurrentA*%
X119204100Y-71000000D03*
%TO.N,PhaseC*%
X136000000Y-43500000D03*
%TO.N,CurrentC*%
X142704100Y-67500000D03*
%TO.N,CurrentB*%
X131704100Y-69500000D03*
%TO.N,PhaseB*%
X123500000Y-44000000D03*
%TO.N,5VDD*%
X104000000Y-79000000D03*
X108000000Y-79000000D03*
X100000000Y-79000000D03*
%TO.N,EncLogicB*%
X98500000Y-74500000D03*
%TO.N,Net-(D7-K)*%
X107000000Y-46500000D03*
X116500000Y-49000000D03*
%TO.N,Net-(D8-K)*%
X129500000Y-49000000D03*
X120000000Y-47000000D03*
%TO.N,Net-(D9-K)*%
X142500000Y-49000000D03*
X133000000Y-47000000D03*
%TD*%
D23*
%TO.N,Net-(A1-A0)*%
X94160000Y-71500000D02*
X90740000Y-74920000D01*
X101000000Y-71500000D02*
X94160000Y-71500000D01*
%TO.N,PhaseA*%
X107000000Y-40339892D02*
X107000000Y-39500000D01*
X91259000Y-58241000D02*
X92785000Y-56715000D01*
X75500000Y-72380000D02*
X89639000Y-58241000D01*
X92785000Y-54554892D02*
X107000000Y-40339892D01*
X92785000Y-56715000D02*
X92785000Y-54554892D01*
X89639000Y-58241000D02*
X91259000Y-58241000D01*
%TO.N,PhaseC*%
X105204100Y-45500000D02*
X134000000Y-45500000D01*
X94500000Y-58822742D02*
X94500000Y-56204100D01*
X89301000Y-63659000D02*
X92545000Y-63659000D01*
X93314000Y-62890000D02*
X93314000Y-60008742D01*
X92545000Y-63659000D02*
X93314000Y-62890000D01*
X134000000Y-45500000D02*
X136000000Y-43500000D01*
X93314000Y-60008742D02*
X94500000Y-58822742D01*
X75500000Y-77460000D02*
X89301000Y-63659000D01*
X94500000Y-56204100D02*
X105204100Y-45500000D01*
%TO.N,PhaseB*%
X91719000Y-60781000D02*
X93186000Y-59314000D01*
X89639000Y-60781000D02*
X91719000Y-60781000D01*
X120354113Y-40854113D02*
X123500000Y-44000000D01*
X93186000Y-55464057D02*
X107795944Y-40854113D01*
X75500000Y-74920000D02*
X89639000Y-60781000D01*
X93186000Y-59314000D02*
X93186000Y-56881100D01*
X107795944Y-40854113D02*
X120354113Y-40854113D01*
X93186000Y-56881100D02*
X93186000Y-55464057D01*
%TO.N,5VDD*%
X100000000Y-79000000D02*
X104000000Y-79000000D01*
X108000000Y-79000000D02*
X104000000Y-79000000D01*
%TO.N,Net-(D7-K)*%
X107000000Y-46500000D02*
X114000000Y-46500000D01*
X114000000Y-46500000D02*
X116500000Y-49000000D01*
%TO.N,Net-(D8-K)*%
X120000000Y-47000000D02*
X127500000Y-47000000D01*
X127500000Y-47000000D02*
X129500000Y-49000000D01*
%TO.N,Net-(D9-K)*%
X140500000Y-47000000D02*
X142500000Y-49000000D01*
X133000000Y-47000000D02*
X140500000Y-47000000D01*
%TD*%
M02*
