%TF.GenerationSoftware,KiCad,Pcbnew,9.0.3*%
%TF.CreationDate,2025-07-09T17:54:38-05:00*%
%TF.ProjectId,focMotorController,666f634d-6f74-46f7-9243-6f6e74726f6c,rev?*%
%TF.SameCoordinates,Original*%
%TF.FileFunction,Soldermask,Bot*%
%TF.FilePolarity,Negative*%
%FSLAX46Y46*%
G04 Gerber Fmt 4.6, Leading zero omitted, Abs format (unit mm)*
G04 Created by KiCad (PCBNEW 9.0.3) date 2025-07-09 17:54:38*
%MOMM*%
%LPD*%
G01*
G04 APERTURE LIST*
G04 Aperture macros list*
%AMRoundRect*
0 Rectangle with rounded corners*
0 $1 Rounding radius*
0 $2 $3 $4 $5 $6 $7 $8 $9 X,Y pos of 4 corners*
0 Add a 4 corners polygon primitive as box body*
4,1,4,$2,$3,$4,$5,$6,$7,$8,$9,$2,$3,0*
0 Add four circle primitives for the rounded corners*
1,1,$1+$1,$2,$3*
1,1,$1+$1,$4,$5*
1,1,$1+$1,$6,$7*
1,1,$1+$1,$8,$9*
0 Add four rect primitives between the rounded corners*
20,1,$1+$1,$2,$3,$4,$5,0*
20,1,$1+$1,$4,$5,$6,$7,0*
20,1,$1+$1,$6,$7,$8,$9,0*
20,1,$1+$1,$8,$9,$2,$3,0*%
G04 Aperture macros list end*
%ADD10RoundRect,0.250000X0.550000X-0.550000X0.550000X0.550000X-0.550000X0.550000X-0.550000X-0.550000X0*%
%ADD11C,1.600000*%
%ADD12C,1.770000*%
%ADD13RoundRect,0.102000X0.955000X-0.955000X0.955000X0.955000X-0.955000X0.955000X-0.955000X-0.955000X0*%
%ADD14C,2.114000*%
%ADD15RoundRect,0.102000X-0.955000X0.955000X-0.955000X-0.955000X0.955000X-0.955000X0.955000X0.955000X0*%
%ADD16RoundRect,0.250000X-0.350000X-0.625000X0.350000X-0.625000X0.350000X0.625000X-0.350000X0.625000X0*%
%ADD17O,1.200000X1.750000*%
%ADD18C,2.300000*%
%ADD19C,2.000000*%
%ADD20R,2.000000X2.000000*%
%ADD21R,1.600000X1.600000*%
%ADD22O,1.600000X1.600000*%
G04 APERTURE END LIST*
D10*
%TO.C,C7*%
X142500000Y-43955113D03*
D11*
X142500000Y-41955113D03*
%TD*%
D10*
%TO.C,C1*%
X140000000Y-86000000D03*
D11*
X140000000Y-82500000D03*
%TD*%
D12*
%TO.C,F1*%
X97500000Y-55500000D03*
X94500000Y-60500000D03*
%TD*%
D10*
%TO.C,C6*%
X129500000Y-43955113D03*
D11*
X129500000Y-41955113D03*
%TD*%
D10*
%TO.C,C8*%
X116500000Y-43955113D03*
D11*
X116500000Y-41955113D03*
%TD*%
%TO.C,C2*%
X133500000Y-82000000D03*
X133500000Y-87000000D03*
%TD*%
D13*
%TO.C,U5*%
X133262100Y-63587500D03*
D14*
X133262100Y-61047500D03*
X133262100Y-58507500D03*
%TD*%
D15*
%TO.C,U7*%
X125000000Y-49920000D03*
D14*
X125000000Y-52460000D03*
X125000000Y-55000000D03*
%TD*%
D13*
%TO.C,U4*%
X120430000Y-63587500D03*
D14*
X120430000Y-61047500D03*
X120430000Y-58507500D03*
%TD*%
D11*
%TO.C,C4*%
X128204100Y-60500000D03*
X128204100Y-65500000D03*
%TD*%
D16*
%TO.C,J2*%
X96000000Y-82500000D03*
D17*
X98000000Y-82500000D03*
X100000000Y-82500000D03*
X102000000Y-82500000D03*
X104000000Y-82500000D03*
X106000000Y-82500000D03*
%TD*%
D18*
%TO.C,P1*%
X118372000Y-83635000D03*
X123372000Y-83635000D03*
X128372000Y-83635000D03*
%TD*%
D15*
%TO.C,U6*%
X112000000Y-49920000D03*
D14*
X112000000Y-52460000D03*
X112000000Y-55000000D03*
%TD*%
D19*
%TO.C,P2*%
X102000000Y-43500000D03*
X97000000Y-43500000D03*
%TD*%
D11*
%TO.C,C5*%
X141000000Y-60500000D03*
X141000000Y-65500000D03*
%TD*%
D20*
%TO.C,D2*%
X100550000Y-59960000D03*
D19*
X100550000Y-65040000D03*
%TD*%
D15*
%TO.C,U8*%
X138000000Y-50047500D03*
D14*
X138000000Y-52587500D03*
X138000000Y-55127500D03*
%TD*%
D21*
%TO.C,A1*%
X75500000Y-46980000D03*
D22*
X75500000Y-49520000D03*
X75500000Y-52060000D03*
X75500000Y-54600000D03*
X75500000Y-57140000D03*
X75500000Y-59680000D03*
X75500000Y-62220000D03*
X75500000Y-64760000D03*
X75500000Y-67300000D03*
X75500000Y-69840000D03*
X75500000Y-72380000D03*
X75500000Y-74920000D03*
X75500000Y-77460000D03*
X75500000Y-80000000D03*
X75500000Y-82540000D03*
X90740000Y-82540000D03*
X90740000Y-80000000D03*
X90740000Y-77460000D03*
X90740000Y-74920000D03*
X90740000Y-72380000D03*
X90740000Y-69840000D03*
X90740000Y-67300000D03*
X90740000Y-64760000D03*
X90740000Y-62220000D03*
X90740000Y-59680000D03*
X90740000Y-57140000D03*
X90740000Y-54600000D03*
X90740000Y-52060000D03*
X90740000Y-49520000D03*
X90740000Y-46980000D03*
%TD*%
D11*
%TO.C,C3*%
X115204100Y-60500000D03*
X115204100Y-65500000D03*
%TD*%
D13*
%TO.C,U3*%
X107704100Y-63587500D03*
D14*
X107704100Y-61047500D03*
X107704100Y-58507500D03*
%TD*%
M02*
