M48
; DRILL file {KiCad 9.0.3} date 2025-07-09T22:45:58-0500
; FORMAT={-:-/ absolute / inch / decimal}
; #@! TF.CreationDate,2025-07-09T22:45:58-05:00
; #@! TF.GenerationSoftware,Kicad,Pcbnew,9.0.3
; #@! TF.FileFunction,Plated,1,4,PTH
FMAT,2
INCH
; #@! TA.AperFunction,Plated,PTH,ViaDrill
T1C0.0118
; #@! TA.AperFunction,Plated,PTH,ComponentDrill
T2C0.0295
; #@! TA.AperFunction,Plated,PTH,ComponentDrill
T3C0.0315
; #@! TA.AperFunction,Plated,PTH,ComponentDrill
T4C0.0394
; #@! TA.AperFunction,Plated,PTH,ComponentDrill
T5C0.0433
; #@! TA.AperFunction,Plated,PTH,ComponentDrill
T6C0.0472
; #@! TA.AperFunction,Plated,PTH,ComponentDrill
T7C0.0500
; #@! TA.AperFunction,Plated,PTH,ComponentDrill
T8C0.0512
%
G90
G05
T1
X3.6417Y-2.6575
X3.7992Y-2.9528
X3.878Y-2.9331
X3.937Y-2.9724
X3.937Y-3.1102
X3.9764Y-2.815
X3.9961Y-1.8898
X4.001Y-2.8888
X4.0945Y-3.1102
X4.1129Y-2.9738
X4.2126Y-1.5551
X4.2126Y-1.8307
X4.252Y-3.1102
X4.5866Y-1.9291
X4.6143Y-3.0315
X4.6734Y-2.6969
X4.6931Y-2.7953
X4.7244Y-1.8504
X4.8622Y-1.7323
X5.0984Y-1.9291
X5.1065Y-3.0315
X5.1655Y-2.6969
X5.1852Y-2.7362
X5.2362Y-1.8504
X5.3543Y-1.7126
X5.5395Y-2.6575
X5.6102Y-1.9291
X5.6183Y-2.6575
X5.6183Y-3.0315
T2
X3.7795Y-3.248
X3.8583Y-3.248
X3.937Y-3.248
X4.0157Y-3.248
X4.0945Y-3.248
X4.1732Y-3.248
T3
X3.7205Y-2.3819
X3.8386Y-2.185
X4.5356Y-2.3819
X4.5356Y-2.5787
X4.5866Y-1.6518
X4.5866Y-1.7305
X5.0474Y-2.3819
X5.0474Y-2.5787
X5.0984Y-1.6518
X5.0984Y-1.7305
X5.2559Y-3.2283
X5.2559Y-3.4252
X5.5118Y-3.248
X5.5118Y-3.3858
X5.5512Y-2.3819
X5.5512Y-2.5787
X5.6102Y-1.6518
X5.6102Y-1.7305
T4
X2.9724Y-1.8496
X2.9724Y-1.9496
X2.9724Y-2.0496
X2.9724Y-2.1496
X2.9724Y-2.2496
X2.9724Y-2.3496
X2.9724Y-2.4496
X2.9724Y-2.5496
X2.9724Y-2.6496
X2.9724Y-2.7496
X2.9724Y-2.8496
X2.9724Y-2.9496
X2.9724Y-3.0496
X2.9724Y-3.1496
X2.9724Y-3.2496
X3.5724Y-1.8496
X3.5724Y-1.9496
X3.5724Y-2.0496
X3.5724Y-2.1496
X3.5724Y-2.2496
X3.5724Y-2.3496
X3.5724Y-2.4496
X3.5724Y-2.5496
X3.5724Y-2.6496
X3.5724Y-2.7496
X3.5724Y-2.8496
X3.5724Y-2.9496
X3.5724Y-3.0496
X3.5724Y-3.1496
X3.5724Y-3.2496
T5
X3.9587Y-2.3606
X3.9587Y-2.5606
T6
X3.8189Y-1.7126
X4.0157Y-1.7126
T7
X4.2403Y-2.3034
X4.2403Y-2.4034
X4.2403Y-2.5034
X4.4094Y-1.9654
X4.4094Y-2.0654
X4.4094Y-2.1654
X4.7413Y-2.3034
X4.7413Y-2.4034
X4.7413Y-2.5034
X4.9213Y-1.9654
X4.9213Y-2.0654
X4.9213Y-2.1654
X5.2465Y-2.3034
X5.2465Y-2.4034
X5.2465Y-2.5034
X5.4331Y-1.9704
X5.4331Y-2.0704
X5.4331Y-2.1704
T8
X4.6603Y-3.2927
X4.8572Y-3.2927
X5.054Y-3.2927
M30
